{"accessors":[{"name":"Node-Mesh_0_positions","componentType":5126,"count":38372,"min":[-115.84864044189453,-23.582990646362305,-14.317708969116211],"max":[117.78264617919922,167.81991577148438,14.589999198913574],"type":"VEC3","bufferView":0,"byteOffset":0},{"name":"Node-Mesh_0_indices","componentType":5123,"count":47922,"min":[0],"max":[38371],"type":"SCALAR","bufferView":1,"byteOffset":0}],"asset":{"generator":"obj2gltf","version":"2.0"},"buffers":[{"name":"candleD","byteLength":556308,"uri":"data:application/octet-stream;base64,"}],"bufferViews":[{"name":"bufferView_0","buffer":0,"byteLength":460464,"byteOffset":0,"byteStride":12,"target":34962},{"name":"bufferView_1","buffer":0,"byteLength":95844,"byteOffset":460464,"target":34963}],"materials":[{"name":"default","pbrMetallicRoughness":{"baseColorFactor":[0.5,0.5,0.5,1],"metallicFactor":0,"roughnessFactor":1},"emissiveFactor":[0,0,0],"alphaMode":"OPAQUE","doubleSided":false}],"meshes":[{"name":"Node-Mesh","primitives":[{"attributes":{"POSITION":0},"indices":1,"material":0,"mode":4}]}],"nodes":[{"name":"Node","mesh":0}],"scene":0,"scenes":[{"nodes":[0]}]}